<svg xmlns="http://www.w3.org/2000/svg" width="517.571" height="566" viewBox="0 0 517.571 566"><defs><style>.a{font-size:70px;font-family:OpenSans-SemiBold, Open Sans;font-weight:600;}.b{font-family:Gilroy-ExtraBold, Gilroy;font-weight:800;}.c{font-family:Sovereign;font-weight:400;}.d{fill:#d74430;}.e{fill:#fff;}</style></defs><g transform="translate(-848.429 -1562)"><text class="a" transform="translate(1366 1637)"><tspan x="-396.45" y="0">ESTRUTURA</tspan><tspan x="-298.059" y="70">DE</tspan><tspan class="b" y="70"> </tspan><tspan class="c" y="70">JOGO</tspan></text><rect class="d" width="517" height="45" transform="translate(849 2018)"/><g transform="translate(820.057 1749.378)"><path d="M2.356,37.875q-1.326,0-2.088-.391v-2.1q1,.29,2.088.289,1.4,0,2.124-.872t.727-2.512V11.064l2.4-.008V32.08q0,2.759-1.356,4.277T2.356,37.875ZM31.082,21.589q0,5.11-2.52,8.039t-7,2.932q-4.576,0-7.06-2.863t-2.483-8.1q0-5.186,2.49-8.048t7.081-2.879q4.467-.015,6.979,2.887T31.082,21.589Zm-16.516.036q0,4.316,1.79,6.543t5.206,2.225q3.445,0,5.2-2.233t1.76-6.566q0-4.293-1.753-6.508t-5.183-2.2q-3.443.011-5.234,2.247T14.566,21.626ZM38.133,23.4v8.858l-2.418,0V10.961l5.705-.019q3.831-.013,5.662,1.483t1.832,4.516q0,4.23-4.19,5.727l5.659,9.573-2.866,0-5.044-8.857Zm0-2.127,3.316-.007q2.563-.006,3.76-1.051t1.2-3.131q0-2.114-1.218-3.044t-3.909-.921l-3.145.01Zm31.95,10.953-2.779,0-11.426-17.9h-.114q.229,3.152.229,5.78V32.235l-2.242,0V10.9l2.742-.009,11.4,17.824h.115q-.029-.395-.129-2.536t-.072-3.062V10.853l2.277-.008ZM89.049,32.2l-2.618-6.808-8.418.015L75.43,32.216l-2.467,0,8.294-21.5,2.054-.007L91.582,32.2Zm-3.38-9.048-2.443-6.628q-.474-1.258-.977-3.087-.316,1.406-.9,3.092l-2.47,6.637Zm25.649-1.917q0,5.317-2.84,8.133t-8.164,2.82l-5.838.006V10.763l6.458-.022q4.922-.017,7.652,2.749T111.319,21.237Zm-2.6.094q0-4.2-2.073-6.323T100.488,12.9l-3.561.011V30.039l2.984,0q4.387-.005,6.6-2.2T108.717,21.331Zm20.639,10.831-2.641-6.839-8.494.015-2.606,6.838-2.489,0,8.368-21.595,2.073-.007,8.344,21.583Zm-3.41-9.088-2.465-6.658q-.478-1.263-.986-3.1-.319,1.413-.913,3.105l-2.492,6.666Z" transform="translate(395.529)"/><path d="M5.451,32.4l-2.395,0V11.178l11.491-.039v2.195l-9.1.029V21.13L14,21.111v2.194l-8.546.017Zm12.515-.013V11.128l2.4-.008V30.142l9.127-.011v2.242Zm15.044-.015V11.077l2.411-.008v21.3ZM54.3,17.224q0,3.241-2.157,4.99T45.972,23.97l-2.445,0v8.384l-2.415,0V11.05l5.386-.018Q54.3,11,54.3,17.224Zm-10.77,4.622,2.175,0q3.214-.007,4.651-1.075t1.438-3.418q0-2.116-1.352-3.148t-4.211-1.023l-2.7.008ZM70.293,32.332l-11.635.012V10.99l11.635-.039v2.208l-9.211.029v6.881l8.653-.021v2.194l-8.653.018v7.86l9.211-.012Zm7.067-8.906v8.9l-2.433,0V10.935l5.742-.019q3.856-.013,5.7,1.49t1.844,4.537q0,4.25-4.218,5.753l5.7,9.617-2.885,0-5.076-8.9Zm0-2.137,3.337-.007q2.58-.006,3.784-1.056t1.2-3.145q0-2.124-1.226-3.058T80.526,13.1l-3.165.01ZM106.3,32.3l-2.622-6.823-8.431.015L92.663,32.31l-2.47,0L98.5,10.767l2.058-.007,8.283,21.533Zm-3.385-9.068-2.447-6.642q-.475-1.261-.979-3.093-.317,1.409-.906,3.1l-2.474,6.651Zm18.165,9.053-7.165-19.039H113.8q.2,2.263.2,5.378V32.288l-2.266,0V10.81l3.695-.013,6.69,17.717h.116L129,10.752l3.68-.012V32.27l-2.463,0V18.4q0-2.385.2-5.183H130.3l-7.238,19.058Zm30.769-.031L149.2,25.393l-8.517.015-2.613,6.856-2.5,0,8.391-21.654,2.078-.007,8.367,21.642Zm-3.419-9.113-2.472-6.676q-.48-1.267-.988-3.109-.32,1.417-.916,3.114l-2.5,6.684Z" transform="translate(373.529 337.305)"/><path class="e" d="M14.687,27.063q0,2.805-1.96,4.377T7.41,33.014q-3.634,0-5.59-.967v-2.38q1.257.55,2.738.867t2.936.316q2.378,0,3.581-.941t1.2-2.61q0-1.1-.427-1.808t-1.427-1.3q-1-.594-3.042-1.345Q4.53,21.8,3.307,20.346T2.085,16.561q0-2.453,1.774-3.91t4.7-1.468q3.05-.011,5.612,1.143l-.742,2.153q-2.534-1.1-4.926-1.089-1.888.006-2.95.852T4.488,16.584q0,1.1.391,1.806T6.2,19.679q.93.586,2.846,1.293,3.218,1.184,4.429,2.547T14.687,27.063ZM34.381,11.4V25.18q0,3.642-2.124,5.727T26.425,33q-3.706,0-5.733-2.089t-2.026-5.756v-13.7l2.384-.008V25.322q0,2.662,1.4,4.085t4.127,1.421q2.6,0,4-1.439t1.406-4.116V11.409Zm18.525,6.155q0,3.241-2.14,4.989T44.649,24.3l-2.425,0v8.383l-2.4,0V11.382l5.342-.018Q52.906,11.337,52.906,17.556ZM42.224,22.177l2.157,0q3.188-.007,4.613-1.075t1.426-3.418q0-2.116-1.341-3.148T44.9,13.508l-2.679.008ZM68.771,32.662l-11.54.012V11.322l11.54-.039v2.208l-9.135.029V20.4l8.582-.021v2.193l-8.582.018v7.859l9.135-.012Zm7.009-8.9v8.9l-2.413,0V11.267l5.695-.019q3.824-.013,5.652,1.49t1.829,4.536q0,4.249-4.183,5.752l5.649,9.616-2.861,0-5.035-8.9Zm0-2.137,3.31-.007q2.559-.006,3.753-1.056t1.195-3.145q0-2.124-1.216-3.058t-3.9-.925l-3.139.01ZM91.371,32.639V11.206l2.423-.008V32.637Zm26.3-10.8q0,5.161-2.544,8.12t-7.064,2.961q-4.618,0-7.125-2.892T98.43,21.848q0-5.238,2.513-8.129t7.146-2.908q4.508-.016,7.043,2.916T117.668,21.835ZM101,21.872q0,4.359,1.807,6.609t5.253,2.247q3.477,0,5.252-2.255t1.776-6.632q0-4.336-1.769-6.573t-5.231-2.224q-3.474.011-5.282,2.27T101,21.872Zm23.784,1.787v8.947l-2.44,0V11.1l5.758-.02q3.867-.013,5.715,1.5t1.849,4.561q0,4.273-4.229,5.784l5.712,9.669-2.893,0-5.09-8.946Zm0-2.148,3.346-.008q2.587-.006,3.795-1.062t1.208-3.162q0-2.136-1.23-3.075t-3.946-.93l-3.174.01ZM140.546,32.59V11.038L143,11.03V32.587Zm25.11-11.038q0,5.351-2.846,8.186t-8.18,2.838l-5.85.006V11.01l6.471-.022q4.932-.017,7.668,2.767T165.657,21.551Zm-2.607.094q0-4.227-2.077-6.363T154.8,13.16l-3.569.011V30.409l2.99,0q4.4-.005,6.609-2.217T163.05,21.646Zm20.681,10.9-2.647-6.883-8.511.015-2.611,6.882-2.494,0,8.385-21.733,2.077-.007,8.361,21.722ZM180.314,23.4l-2.47-6.7q-.479-1.272-.988-3.12-.32,1.422-.915,3.125l-2.5,6.709Zm25.933-1.938q0,5.375-2.872,8.223t-8.254,2.851l-5.9.006V10.872l6.53-.022q4.976-.017,7.737,2.779T206.247,21.461Zm-2.631.095q0-4.246-2.1-6.392T195.3,13.032l-3.6.011V30.359l3.017,0q4.435-.006,6.669-2.227T203.616,21.556Zm19.342,10.951-11.943.012V10.8l11.943-.041V13l-9.454.03v7l8.882-.021v2.231l-8.882.019v8l9.454-.012Z" transform="translate(302.529 269.496)"/><path d="M16.027,33.145,13.5,26.39,5.392,26.4,2.9,33.158l-2.377,0L8.519,11.833l1.98-.007,7.969,21.316ZM12.77,24.168l-2.354-6.575q-.457-1.248-.941-3.062-.3,1.4-.872,3.067l-2.38,6.584ZM28.647,11.851l5.746-.02q4.053-.014,5.865,1.248t1.813,4q0,1.9-1.011,3.13t-2.948,1.6v.146q4.642.82,4.642,5.092,0,2.858-1.848,4.464a5.678,5.678,0,0,1-1.016.7,6.624,6.624,0,0,1-1.2.5,8.539,8.539,0,0,1-1.382.3,11.635,11.635,0,0,1-1.566.1l-7.1.007Zm2.364,9.106,3.9-.009q2.507-.006,3.608-.832t1.1-2.779q0-1.793-1.226-2.583t-3.9-.782l-3.479.011Zm0,2.1v7.964l4.245-.005q2.465,0,3.713-1t1.248-3.128q0-1.982-1.275-2.912t-3.88-.924ZM59.987,33.1l-2.548-6.788-8.194.015-2.514,6.787-2.4,0L52.4,11.681l2-.007L62.452,33.1ZM56.7,24.079,54.319,17.47q-.461-1.254-.951-3.077-.308,1.4-.881,3.082l-2.4,6.617Zm14.886,9.009-2.386,0V13.919L62.7,13.94V11.733l15.384-.053v2.21l-6.505.021Zm22.55-.023L91.566,26.25l-8.257.015-2.533,6.813-2.419,0,8.135-21.518,2.015-.007,8.112,21.506Zm-3.315-9.056-2.4-6.634q-.465-1.259-.958-3.089-.31,1.408-.888,3.094l-2.423,6.642Zm8.639,9.051V11.607l2.4-.008V30.8l9.128-.012v2.263Zm30.81-.031-2.418,0V22.9l-10.936.024V33.042l-2.411,0V11.555l2.411-.008v9.145l10.936-.026V11.509l2.418-.008Zm18.821-.019-2.6-6.857-8.36.015-2.565,6.856-2.449,0,8.237-21.651,2.04-.007,8.213,21.64ZM145.731,23.9,143.3,17.221q-.471-1.267-.97-3.108-.314,1.416-.9,3.114l-2.453,6.684Zm25.588-2.242,7.143-.016V32.165q-1.668.55-3.393.833t-3.994.285q-4.765,0-7.418-2.912T161.006,22.2q0-3.369,1.311-5.907t3.778-3.884q2.468-1.347,5.784-1.358,3.362-.012,6.266,1.251l-.949,2.224q-2.846-1.234-5.475-1.226-3.833.012-5.985,2.37t-2.151,6.524q0,4.375,2.072,6.633t6.092,2.254q2.183,0,4.267-.523v-6.66l-4.7.01ZM196.766,32.96l-2.628-6.894-8.45.015L183.1,32.974l-2.476,0,8.325-21.768,2.062-.007,8.3,21.756ZM193.373,23.8l-2.453-6.711q-.476-1.274-.981-3.125-.317,1.424-.908,3.13l-2.479,6.72Zm8.841,9.156v-21.7l2.459-.008V30.665l9.341-.012v2.289Zm28.751-.029-2.648-6.92-8.515.015-2.612,6.919-2.495,0,8.389-21.851,2.078-.007,8.365,21.839Zm-3.419-9.2-2.471-6.737q-.48-1.278-.988-3.137-.32,1.429-.915,3.142l-2.5,6.745ZM222.329,9.07q.7-.925,1.5-2.238T225.1,4.551l2.937-.012v.313q-.64.97-1.9,2.389t-2.195,2.2l-1.613.006Zm23.257,3.986q-3.517.011-5.552,2.411T238,22.024q0,4.277,1.961,6.607t5.6,2.326q2.234,0,5.1-.827v2.224q-2.221.853-5.478.856-4.713,0-7.272-2.914T235.348,22q0-3.367,1.231-5.9t3.557-3.916q2.327-1.38,5.479-1.391,3.359-.012,5.873,1.233l-1.052,2.182Q248.01,13.049,245.585,13.057Zm16.324,19.837-2.49,0V13.311l-6.776.022V11.078l16.056-.055v2.258l-6.79.022Zm10.019-.01V11.012l2.5-.009V32.881Zm17.614-19.969q-3.552.011-5.606,2.422t-2.054,6.588q0,4.3,1.98,6.639t5.651,2.337q2.256,0,5.148-.831v2.235q-2.243.857-5.532.86-4.759,0-7.343-2.928T279.2,21.9q0-3.384,1.243-5.933t3.592-3.935q2.349-1.386,5.533-1.4,3.392-.012,5.931,1.239l-1.063,2.193Q291.99,12.907,289.542,12.915Zm23.429,19.927-2.7-6.983-8.671.016-2.66,6.982-2.54,0,8.543-22.05,2.116-.007,8.519,22.038Zm-3.481-9.28-2.517-6.8q-.488-1.29-1.006-3.166-.326,1.443-.932,3.171l-2.544,6.807Z" transform="translate(211.585 201.587)"/><path d="M18.858,33.445l-2.341,0v-10l-10.587.023v9.989l-2.334,0V12.24l2.334-.008v9.03l10.587-.026V12.2l2.341-.008Zm16.78-.017-11.254.012V12.168l11.254-.039v2.2l-8.909.029v6.855l8.37-.02v2.185l-8.37.018v7.83l8.909-.011Zm6.836-8.871V33.42l-2.354,0V12.113l5.554-.019q3.729-.013,5.512,1.484T52.97,18.1q0,4.233-4.079,5.731l5.509,9.58-2.79,0L46.7,24.547Zm0-2.129L45.7,22.42q2.5-.006,3.66-1.052t1.165-3.133q0-2.116-1.186-3.046t-3.806-.922l-3.061.01Zm32.874.232q0,5.137-2.476,8.082T66,33.689q-4.495,0-6.935-2.878t-2.439-8.138q0-5.213,2.446-8.091t6.956-2.895q4.388-.015,6.855,2.9T75.348,22.66ZM59.123,22.7q0,4.338,1.759,6.578T66,31.51q3.385,0,5.113-2.244t1.729-6.6q0-4.316-1.722-6.542t-5.092-2.214q-3.382.011-5.141,2.259T59.123,22.7ZM64.047,9.955q.668-.909,1.441-2.2t1.218-2.242L69.52,5.5V5.81q-.613.953-1.825,2.347t-2.1,2.157l-1.545.006ZM79.9,33.382V11.975l2.375-.008V33.38ZM99.44,27.653q0,2.832-1.964,4.419t-5.326,1.59q-3.64,0-5.6-.976v-2.4q1.259.555,2.743.876t2.94.319q2.382,0,3.587-.951t1.206-2.635q0-1.115-.428-1.826t-1.43-1.31q-1-.6-3.047-1.358-2.856-1.064-4.081-2.527t-1.224-3.822q0-2.476,1.777-3.948t4.7-1.482q3.055-.011,5.622,1.154l-.743,2.174q-2.538-1.107-4.934-1.1-1.891.006-2.955.86t-1.064,2.363q0,1.114.392,1.824t1.323,1.3q.931.591,2.85,1.305,3.224,1.2,4.437,2.572T99.44,27.653Zm20.489-13.89q-3.4.011-5.36,2.377T112.606,22.6q0,4.218,1.893,6.515t5.4,2.294q2.157,0,4.922-.816v2.193q-2.144.841-5.288.844-4.55,0-7.02-2.874t-2.469-8.181q0-3.321,1.189-5.822t3.434-3.861q2.246-1.36,5.29-1.371,3.243-.011,5.67,1.216L124.611,14.9Q122.27,13.755,119.929,13.763ZM147.288,22.5q0,5.179-2.517,8.148t-6.99,2.972q-4.569,0-7.049-2.9t-2.479-8.2q0-5.256,2.486-8.157t7.071-2.919q4.46-.016,6.969,2.926T147.288,22.5Zm-16.492.037q0,4.374,1.788,6.632t5.2,2.255q3.44,0,5.2-2.263t1.757-6.655q0-4.351-1.75-6.6t-5.176-2.232q-3.438.011-5.226,2.278T130.8,22.535Zm37.362,10.757-2.764,0L154.03,15.188h-.114q.227,3.189.227,5.847V33.306l-2.23,0V11.725l2.727-.009,11.337,18.029h.114q-.028-.4-.128-2.565t-.071-3.1V11.677l2.265-.008Zm12.158-.012-2.428,0V13.871l-6.607.021V11.658l15.657-.054v2.238l-6.621.021Zm12.206-9.029v9.017l-2.435,0V11.593l5.746-.02q3.859-.013,5.7,1.509t1.845,4.6q0,4.306-4.221,5.83l5.7,9.745-2.887,0-5.08-9.016Zm0-2.165,3.34-.008q2.582-.006,3.787-1.07t1.206-3.187q0-2.152-1.227-3.1t-3.938-.937l-3.168.01Zm28.967,11.152-2.624-6.914-8.439.015-2.589,6.913-2.472,0,8.314-21.832,2.059-.007,8.29,21.82ZM218.1,24.048l-2.449-6.731q-.475-1.277-.979-3.134-.317,1.428-.907,3.14l-2.476,6.739Zm34.911-1.789q0,5.241-2.577,8.246t-7.158,3.008q-4.679,0-7.219-2.936t-2.539-8.3q0-5.319,2.546-8.255t7.241-2.954q4.568-.016,7.136,2.96T253.011,22.259Zm-16.889.038q0,4.426,1.831,6.711t5.323,2.282q3.523,0,5.322-2.29t1.8-6.735q0-4.4-1.792-6.675t-5.3-2.259q-3.52.011-5.352,2.306T236.121,22.3Zm33.639,5.07q0,2.887-2.041,4.505t-5.534,1.621q-3.783,0-5.818-1v-2.45q1.308.566,2.85.893t3.056.325q2.475,0,3.728-.969t1.253-2.686q0-1.137-.444-1.861t-1.486-1.335q-1.041-.611-3.167-1.384-2.968-1.084-4.241-2.575t-1.272-3.9q0-2.524,1.847-4.024t4.889-1.511q3.175-.011,5.842,1.176l-.773,2.216q-2.637-1.128-5.127-1.12-1.965.006-3.071.877t-1.105,2.409q0,1.136.407,1.859t1.375,1.326q.968.6,2.962,1.331,3.35,1.218,4.611,2.622T269.76,27.368Zm24.355-16.136,2.683-.009-7.723,21.945-2.459,0-7.662-21.886,2.63-.009L286.5,25.436q.849,2.442,1.347,4.749.527-2.429,1.376-4.844Zm5.633,21.925V11.212l2.5-.009v21.95Zm8.389-.009V11.183l2.5-.009V30.831l9.5-.012v2.317Zm34.423-11.09q0,5.294-2.629,8.328t-7.3,3.038q-4.773,0-7.364-2.966t-2.59-8.386q0-5.372,2.6-8.337t7.386-2.984q4.66-.016,7.28,2.99T342.56,22.057Zm-17.23.039q0,4.471,1.868,6.778t5.43,2.3q3.594,0,5.429-2.313t1.836-6.8q0-4.448-1.828-6.741t-5.407-2.281q-3.591.012-5.46,2.329T325.33,22.1Zm9.413-12.8q-.636,0-1.242-.274t-1.19-.613q-.584-.337-1.123-.613t-1.042-.275q-.739,0-1.116.456t-.583,1.372L327,9.356q.192-1.822,1.041-2.857t2.194-1.04q.68,0,1.315.273t1.212.613q.577.337,1.109.613t1.006.275q.725,0,1.08-.449t.577-1.381L338,5.4q-.192,1.825-1.029,2.86T334.743,9.3Zm24.756,23.8-12.106.012V11.046L359.5,11v2.282l-9.583.031v7.109l9-.022V22.67l-9,.02v8.12L359.5,30.8Zm17.122-5.906q0,2.922-2.09,4.559t-5.667,1.64q-3.873,0-5.958-1.007V29.9q1.34.573,2.918.9t3.129.329q2.534,0,3.817-.981t1.283-2.718q0-1.15-.455-1.883T372.076,24.2q-1.066-.618-3.243-1.4-3.039-1.1-4.342-2.606t-1.3-3.942q0-2.555,1.891-4.072t5.006-1.529q3.251-.011,5.982,1.19l-.791,2.243q-2.7-1.142-5.251-1.133-2.012.007-3.145.887t-1.132,2.438q0,1.149.417,1.881t1.408,1.342q.991.61,3.033,1.346,3.431,1.233,4.721,2.653T376.62,27.188Z" transform="translate(149.592 133.804)"/><path d="M16.068,34.047,13.6,27.293l-7.941.015L3.223,34.061l-2.327,0L8.719,12.735l1.938-.007,7.8,21.317ZM12.88,25.071l-2.3-6.576q-.447-1.248-.922-3.062-.3,1.4-.854,3.067l-2.33,6.584ZM28.422,12.753l5.625-.02q3.968-.014,5.741,1.248t1.774,4q0,1.9-.99,3.13t-2.886,1.6v.146q4.544.82,4.544,5.092,0,2.858-1.809,4.464a5.559,5.559,0,0,1-.994.7,6.41,6.41,0,0,1-1.174.5,8.206,8.206,0,0,1-1.353.3,11.153,11.153,0,0,1-1.533.1l-6.947.007Zm2.314,9.107,3.815-.009q2.454-.006,3.531-.832t1.078-2.779q0-1.793-1.2-2.583t-3.818-.782l-3.406.011Zm0,2.1v7.965l4.155-.005q2.413,0,3.634-1t1.221-3.128q0-1.982-1.248-2.913t-3.8-.924ZM59.1,34l-2.494-6.789-8.02.015-2.461,6.787-2.35,0,7.9-21.435,1.957-.007L61.512,34Zm-3.22-9.022-2.328-6.609q-.452-1.254-.931-3.077-.3,1.4-.862,3.083l-2.353,6.617Zm14.571,9.01-2.336,0V14.821l-6.355.021V12.635l15.059-.053v2.21l-6.368.021Zm22.074-.023L90.01,27.153l-8.083.015-2.48,6.814-2.368,0,7.963-21.519,1.972-.007,7.94,21.507Zm-3.245-9.056-2.346-6.634q-.455-1.259-.938-3.089-.3,1.408-.869,3.095l-2.371,6.643Zm8.456,9.051V12.508l2.352-.008V31.7l8.935-.012v2.263Zm30.159-.031-2.367,0V23.8l-10.7.024V33.944l-2.36,0V12.457l2.36-.008v9.145l10.7-.026V12.411l2.367-.008Zm18.423-.019-2.545-6.857-8.184.015-2.511,6.856-2.4,0,8.063-21.652,2-.007,8.039,21.641ZM143.031,24.8l-2.375-6.675q-.461-1.267-.95-3.109-.307,1.417-.88,3.114l-2.4,6.684Zm32.419-1.948q0,5.36-2.766,8.2t-7.95,2.843l-5.685.006V12.292l6.289-.022q4.793-.017,7.452,2.771T175.45,22.851Zm-2.534.095q0-4.233-2.019-6.373T164.9,14.446l-3.468.011V31.723l2.906,0q4.272-.006,6.423-2.221T172.916,22.945Zm25.05.032q0,5.21-2.511,8.2t-6.975,2.99q-4.559,0-7.034-2.919t-2.474-8.254q0-5.288,2.481-8.207t7.055-2.937q4.451-.016,6.954,2.943T197.966,22.977Zm-16.457.038q0,4.4,1.784,6.672t5.187,2.268q3.433,0,5.186-2.277t1.754-6.7q0-4.378-1.747-6.636T188.507,14.1q-3.43.011-5.215,2.292T181.508,23.015Zm37.753-.577,7.074-.017V33.009q-1.652.553-3.36.837t-3.955.287q-4.719,0-7.346-2.929t-2.626-8.223q0-3.389,1.3-5.942t3.742-3.907q2.444-1.355,5.728-1.366,3.33-.012,6.206,1.259l-.94,2.237q-2.819-1.241-5.422-1.233-3.8.013-5.927,2.384t-2.13,6.563q0,4.4,2.052,6.672t6.034,2.268q2.162,0,4.226-.526v-6.7l-4.653.01ZM247.11,11.982V26.1q0,3.732-2.161,5.869t-5.933,2.14q-3.77,0-5.832-2.14t-2.061-5.9V12.039l2.425-.009V26.249q0,2.728,1.427,4.186t4.2,1.456q2.644,0,4.074-1.475t1.43-4.218V11.991Zm17.237,21.806-11.695.012V11.963l11.695-.041V14.18l-9.258.03v7.037l8.7-.021V23.47l-8.7.019v8.038l9.258-.012Zm7.1-9.109v9.1l-2.446,0V11.905l5.772-.02q3.876-.014,5.729,1.523t1.853,4.64q0,4.346-4.24,5.884l5.726,9.836-2.9,0-5.1-9.1Zm0-2.185,3.355-.008q2.593-.006,3.8-1.08t1.211-3.217q0-2.173-1.233-3.128t-3.955-.946l-3.182.01Zm18.258,2.148v9.12l-2.456,0V11.841l5.8-.02q3.892-.014,5.753,1.526T300.662,18q0,4.355-4.257,5.9l5.75,9.856-2.912,0-5.124-9.119Zm0-2.19,3.368-.008q2.6-.006,3.82-1.082t1.216-3.224q0-2.177-1.238-3.134t-3.972-.948l-3.195.01Zm27.7,11.281-11.836.012V11.776l11.836-.042v2.272l-9.37.031v7.08l8.8-.022v2.257l-8.8.019v8.087l9.37-.012Zm4.714,0V11.718l2.475-.009V33.726Zm10.8-9.176v9.165l-2.48,0V11.689l5.852-.021q3.93-.014,5.809,1.534t1.879,4.672q0,4.377-4.3,5.925l5.806,9.9-2.94,0-5.174-9.164Zm0-2.2,3.4-.008q2.63-.006,3.857-1.088t1.228-3.239q0-2.188-1.25-3.149t-4.01-.952l-3.226.011Zm34.647.237q0,5.311-2.61,8.356t-7.248,3.048q-4.737,0-7.309-2.975t-2.57-8.414q0-5.39,2.578-8.365t7.331-2.994q4.625-.016,7.226,3T367.573,22.589Zm-17.1.039q0,4.486,1.854,6.8t5.39,2.312q3.567,0,5.389-2.321t1.822-6.825q0-4.463-1.815-6.764t-5.367-2.289q-3.564.012-5.419,2.337T350.472,22.628Zm41.773,11.027-12.036.013V11.514l12.036-.042v2.291l-9.528.031v7.139l8.952-.022v2.276l-8.952.02v8.155l9.528-.012Zm17.024-5.932q0,2.934-2.078,4.579t-5.635,1.647q-3.851,0-5.924-1.011V30.449q1.332.575,2.9.907t3.111.33q2.52,0,3.8-.985t1.276-2.73q0-1.155-.452-1.891t-1.513-1.357q-1.06-.621-3.224-1.406-3.022-1.1-4.318-2.617t-1.3-3.959q0-2.565,1.88-4.09t4.978-1.536Q406,11.1,408.72,12.31l-.787,2.252q-2.685-1.146-5.221-1.138-2,.007-3.127.891t-1.126,2.448q0,1.154.415,1.889t1.4,1.348q.985.613,3.016,1.352,3.411,1.238,4.695,2.664T409.27,27.724Zm11.133,5.9-2.529,0V13.679l-6.881.022v-2.3l16.306-.057v2.3l-6.9.023ZM442.75,33.6l-12.172.013V11.336l12.172-.043v2.3l-9.636.031v7.18l9.053-.022v2.289l-9.053.02v8.2l9.636-.013ZM447.6,33.6V11.276l2.546-.009V31.243l9.673-.013v2.354Zm29.773-.031-2.742-7.118-8.818.016-2.705,7.117-2.583,0,8.687-22.476,2.152-.008,8.663,22.463Zm-3.54-9.459-2.559-6.929q-.5-1.315-1.023-3.227-.331,1.47-.948,3.232l-2.587,6.938Zm11.792.129v9.322l-2.566,0V11.151l6.055-.021q4.066-.014,6.01,1.56t1.945,4.753q0,4.452-4.448,6.027l6.007,10.075-3.043,0-5.354-9.321Zm0-2.239,3.519-.008q2.721-.006,3.991-1.106t1.271-3.3q0-2.225-1.293-3.2t-4.15-.969l-3.338.011Z" transform="translate(28.373 65.724)"/></g></g></svg>